HIERARCHY
ROOT SpineBase
{
  OFFSET 0.000000 0.000000 0.000000
  CHANNELS 6 Xposition Yposition Zposition Zrotation Xrotation Yrotation
  JOINT SpineMid
  {
    OFFSET 0.000000 32.206741 0.000000
    CHANNELS 3 Zrotation Xrotation Yrotation
    JOINT SpineShoulder
    {
      OFFSET -0.199327 23.834650 -0.733942
      CHANNELS 3 Zrotation Xrotation Yrotation
      JOINT Neck
      {
        OFFSET -0.136540 7.860329 -0.560203
        CHANNELS 3 Zrotation Xrotation Yrotation
        JOINT Head
        {
          OFFSET -5.959201 11.776283 3.196547
          CHANNELS 3 Zrotation Xrotation Yrotation
          End Site
          {
            OFFSET 0 0 0
          }
        }
      }
      JOINT ShoulderLeft
      {
        OFFSET -5.320098 -3.248672 15.836826
        CHANNELS 3 Zrotation Xrotation Yrotation
        JOINT ElbowLeft
        {
          OFFSET -3.276213 -28.405614 7.160643
          CHANNELS 3 Zrotation Xrotation Yrotation
          JOINT WristLeft
          {
            OFFSET -1.126958 -26.954812 -7.550464
            CHANNELS 3 Zrotation Xrotation Yrotation
            JOINT HandLeft
            {
              OFFSET -0.764955 -3.164873 0.925437
              CHANNELS 3 Zrotation Xrotation Yrotation
              JOINT HandTipLeft
              {
                OFFSET 1.335151 -5.815695 -2.161869
                CHANNELS 3 Zrotation Xrotation Yrotation
                End Site
                {
                  OFFSET 0 0 0
                }
              }
              JOINT ThumbLeft
              {
                OFFSET -1.047363 0.022206 -0.796609
                CHANNELS 3 Zrotation Xrotation Yrotation
                End Site
                {
                  OFFSET 0 0 0
                }
              }
            }
          }
        }
      }
      JOINT ShoulderRight
      {
        OFFSET 3.397439 -5.423821 -14.847904
        CHANNELS 3 Zrotation Xrotation Yrotation
        JOINT ElbowRight
        {
          OFFSET 1.205897 -22.532364 -6.786573
          CHANNELS 3 Zrotation Xrotation Yrotation
          JOINT WristRight
          {
            OFFSET -7.448192 -20.713239 0.330138
            CHANNELS 3 Zrotation Xrotation Yrotation
            JOINT HandRight
            {
              OFFSET -1.213615 -7.986793 3.136639
              CHANNELS 3 Zrotation Xrotation Yrotation
              JOINT HandTipRight
              {
                OFFSET -3.959984 -6.534281 0.699317
                CHANNELS 3 Zrotation Xrotation Yrotation
                End Site
                {
                  OFFSET 0 0 0
                }
              }
              JOINT ThumbRight
              {
                OFFSET 5.489538 0.725012 -0.240882
                CHANNELS 3 Zrotation Xrotation Yrotation
                End Site
                {
                  OFFSET 0 0 0
                }
              }
            }
          }
        }
      }
    }
  }
  JOINT HipLeft
  {
    OFFSET -2.973518 -0.474660 2.938306
    CHANNELS 3 Zrotation Xrotation Yrotation
    JOINT KneeLeft
    {
      OFFSET 2.362132 -32.832316 11.373271
      CHANNELS 3 Zrotation Xrotation Yrotation
      JOINT AnkleLeft
      {
        OFFSET 10.209920 -34.964202 4.327373
        CHANNELS 3 Zrotation Xrotation Yrotation
        JOINT FootLeft
        {
          OFFSET -5.333172 -7.150807 -1.848428
          CHANNELS 3 Zrotation Xrotation Yrotation
          End Site
          {
            OFFSET 0 0 0
          }
        }
      }
    }
  }
  JOINT HipRight
  {
    OFFSET 1.517140 2.265365 -9.872181
    CHANNELS 3 Zrotation Xrotation Yrotation
    JOINT KneeRight
    {
      OFFSET 9.221065 -34.274021 -0.802550
      CHANNELS 3 Zrotation Xrotation Yrotation
      JOINT AnkleRight
      {
        OFFSET 8.904493 -36.738167 4.228633
        CHANNELS 3 Zrotation Xrotation Yrotation
        JOINT FootRight
        {
          OFFSET -4.216881 -7.813298 -3.494749
          CHANNELS 3 Zrotation Xrotation Yrotation
          End Site
          {
            OFFSET 0 0 0
          }
        }
      }
    }
  }
}
MOTION
Frames: 5
Frame Time: 0.033333
54.988714 76.720412 269.279819 0.167178 -0.512083 72.622037 0.438779 0.312492 -72.622487 -0.000000 0.000000 0.000000 1.289610 0.292204 -0.204185 0.000000 0.000000 0.000000 -0.000000 0.000000 0.000000 -2.312888 1.566130 0.611236 9.697897 36.818389 -11.795073 -3.024453 -41.399262 7.429321 0.000000 0.000000 0.000000 0.000000 0.000000 0.000000 0.473232 0.762922 -0.104621 -0.471880 -0.763759 0.098325 -0.195948 3.277971 -0.575897 -2.477776 -2.427370 -0.353425 0.000000 0.000000 0.000000 0.000000 0.000000 0.000000 1.389711 0.286483 -72.455319 -0.311517 -0.898826 -0.174582 5.353214 1.677528 -2.800932 0.000000 0.000000 0.000000 2.609652 -0.640444 -72.173657 -1.572063 -1.774834 -0.466968 0.776018 -1.899237 0.698606 0.000000 0.000000 0.000000
54.960724 76.712194 269.312993 0.232452 -0.486757 72.594242 0.394935 0.367414 -72.594521 -0.000000 0.000000 0.000000 1.308990 0.475646 -0.119242 0.000000 0.000000 0.000000 -0.000000 0.000000 0.000000 -2.129466 2.229050 0.541416 15.246822 49.908888 -19.244239 -3.332841 -49.807455 11.493045 0.000000 0.000000 0.000000 0.000000 0.000000 0.000000 0.519630 0.775109 -0.118272 0.327322 -0.477926 0.027109 -1.211736 3.024178 -0.553932 -1.873161 -2.091562 -0.430820 0.000000 0.000000 0.000000 0.000000 0.000000 0.000000 1.392014 0.351166 -72.423527 -0.316659 -0.945583 -0.179859 4.972124 1.126314 -2.241626 0.000000 0.000000 0.000000 2.627198 -0.516145 -72.126795 -1.526410 -1.853228 -0.489517 0.977316 -1.395275 0.331157 0.000000 0.000000 0.000000
54.942659 76.729130 269.340487 0.329562 -0.423898 72.522607 0.305353 0.441656 -72.522565 -0.000000 0.000000 0.000000 1.667529 0.691403 -0.111843 0.000000 0.000000 0.000000 -0.000000 0.000000 0.000000 -1.966468 1.440434 0.513210 15.322468 48.871474 -18.476566 -7.219258 -47.093851 9.171569 0.000000 0.000000 0.000000 0.000000 0.000000 0.000000 0.557565 0.826124 -0.127432 0.509405 -0.487596 0.026934 -1.642295 2.809470 -0.596223 -1.242519 -1.985000 -0.259667 0.000000 0.000000 0.000000 0.000000 0.000000 0.000000 1.301367 0.476318 -72.368857 -0.268730 -0.959673 -0.163938 5.645311 1.395504 -2.659043 0.000000 0.000000 0.000000 2.609373 -0.325411 -72.030717 -1.440963 -1.954801 -0.518771 0.979952 -0.918080 0.065567 0.000000 0.000000 0.000000
54.942652 76.768128 269.354559 0.437287 -0.316605 72.499375 0.170450 0.512255 -72.498929 -0.000000 0.000000 0.000000 2.129083 0.810097 -0.181043 0.000000 0.000000 0.000000 -0.000000 0.000000 0.000000 -1.988103 0.665487 0.539405 9.419051 35.912345 -11.140033 -8.227152 -37.733933 5.698455 0.000000 0.000000 0.000000 0.000000 0.000000 0.000000 0.455559 0.892747 -0.092744 0.852482 -0.506832 -0.016290 -2.173559 2.661335 -0.678484 0.276234 -2.052905 0.138991 0.000000 0.000000 0.000000 0.000000 0.000000 0.000000 1.157538 0.704266 -72.397839 -0.115572 -0.998873 -0.112576 6.678768 2.224068 -3.656695 0.000000 0.000000 0.000000 2.557079 -0.088133 -71.975899 -1.310043 -2.083478 -0.555687 -0.000000 0.000000 0.000000 0.000000 0.000000 0.000000
54.967149 76.829935 269.356797 0.620638 -0.152636 72.474431 -0.041350 0.637792 -72.473375 -0.000000 0.000000 0.000000 2.541902 0.710493 -0.341895 0.000000 0.000000 0.000000 -0.000000 0.000000 0.000000 -2.139444 -2.259416 0.654742 4.796564 24.149050 -6.385385 -6.871847 -27.189096 3.526602 0.000000 0.000000 0.000000 0.000000 0.000000 0.000000 -0.000000 0.000000 0.000000 1.802601 0.385227 -0.116515 -2.421348 3.067946 -0.655993 1.632764 -2.778784 0.553004 0.000000 0.000000 0.000000 0.000000 0.000000 0.000000 0.917518 1.089837 -72.461521 0.141986 -1.050429 -0.025008 7.532496 2.180756 -3.890546 0.000000 0.000000 0.000000 2.268524 0.064665 -71.972059 -1.260539 -2.018774 -0.537688 -0.000000 0.000000 0.000000 0.000000 0.000000 0.000000
